<?xml version="1.0" encoding="UTF-8" standalone="no"?>
<!DOCTYPE svg PUBLIC "-//W3C//DTD SVG 1.1//EN"
 "http://www.w3.org/Graphics/SVG/1.1/DTD/svg11.dtd">
<!-- Generated by graphviz version 2.47.0 (20210316.0004)
 -->
<!-- Title: dependencies Pages: 1 -->
<svg width="1114pt" height="287pt"
 viewBox="0.00 0.00 1114.00 287.00" xmlns="http://www.w3.org/2000/svg" xmlns:xlink="http://www.w3.org/1999/xlink">
<g id="graph0" class="graph" transform="scale(1 1) rotate(0) translate(4 283)">
<title>dependencies</title>
<polygon fill="white" stroke="transparent" points="-4,4 -4,-283 1110,-283 1110,4 -4,4"/>
<text text-anchor="start" x="532.01" y="-42.4" font-family="Times-12" font-weight="bold" font-size="14.00">Legend</text>
<polygon fill="#ffffb3" stroke="transparent" points="319,-10 319,-30 339,-30 339,-10 319,-10"/>
<text text-anchor="start" x="342.63" y="-15.4" font-family="Times-12" font-size="14.00"> &#160;Declarations</text>
<polygon fill="#8dd3c7" stroke="transparent" points="432,-10 432,-30 452,-30 452,-10 432,-10"/>
<text text-anchor="start" x="455.73" y="-15.4" font-family="Times-12" font-size="14.00"> &#160;Module</text>
<polygon fill="#80b1d3" stroke="transparent" points="518,-10 518,-30 538,-30 538,-10 518,-10"/>
<text text-anchor="start" x="541.78" y="-15.4" font-family="Times-12" font-size="14.00"> &#160;Bootstrap</text>
<polygon fill="#fdb462" stroke="transparent" points="615,-10 615,-30 635,-30 635,-10 615,-10"/>
<text text-anchor="start" x="638.67" y="-15.4" font-family="Times-12" font-size="14.00"> &#160;Providers</text>
<polygon fill="#fb8072" stroke="transparent" points="711,-10 711,-30 731,-30 731,-10 711,-10"/>
<text text-anchor="start" x="734.73" y="-15.4" font-family="Times-12" font-size="14.00"> &#160;Exports</text>
<g id="clust1" class="cluster">
<title>cluster_AppModule</title>
<polygon fill="none" stroke="black" stroke-dasharray="1,5" points="560,-70 560,-271 830,-271 830,-70 560,-70"/>
</g>
<g id="clust3" class="cluster">
<title>cluster_AppModule_imports</title>
<polygon fill="none" stroke="black" points="706,-78 706,-206 810,-206 810,-78 706,-78"/>
</g>
<g id="clust6" class="cluster">
<title>cluster_AppModule_providers</title>
<polygon fill="none" stroke="black" points="568,-154 568,-206 698,-206 698,-154 568,-154"/>
</g>
<g id="clust7" class="cluster">
<title>cluster_AuthModule</title>
<polygon fill="none" stroke="black" stroke-dasharray="1,5" points="8,-70 8,-138 552,-138 552,-70 8,-70"/>
</g>
<g id="clust10" class="cluster">
<title>cluster_AuthModule_exports</title>
<polygon fill="none" stroke="black" points="438,-78 438,-130 544,-130 544,-78 438,-78"/>
</g>
<g id="clust12" class="cluster">
<title>cluster_AuthModule_providers</title>
<polygon fill="none" stroke="black" points="16,-78 16,-130 430,-130 430,-78 16,-78"/>
</g>
<g id="clust13" class="cluster">
<title>cluster_UserModule</title>
<polygon fill="none" stroke="black" stroke-dasharray="1,5" points="838,-146 838,-214 1098,-214 1098,-146 838,-146"/>
</g>
<g id="clust16" class="cluster">
<title>cluster_UserModule_exports</title>
<polygon fill="none" stroke="black" points="986,-154 986,-206 1090,-206 1090,-154 986,-154"/>
</g>
<g id="clust18" class="cluster">
<title>cluster_UserModule_providers</title>
<polygon fill="none" stroke="black" points="846,-154 846,-206 978,-206 978,-154 846,-154"/>
</g>
<!-- AuthModule -->
<g id="node1" class="node">
<title>AuthModule</title>
<polygon fill="#8dd3c7" stroke="black" points="801.55,-198 798.55,-202 777.55,-202 774.55,-198 714.45,-198 714.45,-162 801.55,-162 801.55,-198"/>
<text text-anchor="middle" x="758" y="-175.8" font-family="Times,serif" font-size="14.00">AuthModule</text>
</g>
<!-- AppModule -->
<g id="node3" class="node">
<title>AppModule</title>
<polygon fill="#8dd3c7" stroke="black" points="799.66,-263 796.66,-267 775.66,-267 772.66,-263 716.34,-263 716.34,-227 799.66,-227 799.66,-263"/>
<text text-anchor="middle" x="758" y="-240.8" font-family="Times,serif" font-size="14.00">AppModule</text>
</g>
<!-- AuthModule&#45;&gt;AppModule -->
<g id="edge1" class="edge">
<title>AuthModule&#45;&gt;AppModule</title>
<path fill="none" stroke="black" d="M758,-198.11C758,-198.11 758,-216.99 758,-216.99"/>
<polygon fill="black" stroke="black" points="754.5,-216.99 758,-226.99 761.5,-216.99 754.5,-216.99"/>
</g>
<!-- AuthService  -->
<g id="node5" class="node">
<title>AuthService </title>
<polygon fill="#fb8072" stroke="black" points="535.98,-122 446.02,-122 446.02,-86 535.98,-86 535.98,-122"/>
<text text-anchor="middle" x="491" y="-99.8" font-family="Times,serif" font-size="14.00">AuthService </text>
</g>
<!-- AuthModule&#45;&gt;AuthService  -->
<g id="edge5" class="edge">
<title>AuthModule&#45;&gt;AuthService </title>
<path fill="none" stroke="black" stroke-dasharray="5,2" d="M714.15,-180C709.27,-180 706.02,-180 706.02,-180 706.02,-180 706.02,-98 706.02,-98 706.02,-98 545.81,-98 545.81,-98"/>
<polygon fill="black" stroke="black" points="545.81,-94.5 535.81,-98 545.81,-101.5 545.81,-94.5"/>
</g>
<!-- UserModule -->
<g id="node2" class="node">
<title>UserModule</title>
<polygon fill="#8dd3c7" stroke="black" points="801.98,-122 798.98,-126 777.98,-126 774.98,-122 716.02,-122 716.02,-86 801.98,-86 801.98,-122"/>
<text text-anchor="middle" x="759" y="-99.8" font-family="Times,serif" font-size="14.00">UserModule</text>
</g>
<!-- UserModule&#45;&gt;AuthModule -->
<g id="edge4" class="edge">
<title>UserModule&#45;&gt;AuthModule</title>
<path fill="none" stroke="black" d="M784.62,-122.01C784.62,-122.01 784.62,-151.85 784.62,-151.85"/>
<polygon fill="black" stroke="black" points="781.12,-151.85 784.62,-161.85 788.12,-151.85 781.12,-151.85"/>
</g>
<!-- UserModule&#45;&gt;AppModule -->
<g id="edge2" class="edge">
<title>UserModule&#45;&gt;AppModule</title>
<path fill="none" stroke="black" d="M715.85,-110C705.72,-110 697.82,-110 697.82,-110 697.82,-110 697.82,-239 697.82,-239 697.82,-239 706.2,-239 706.2,-239"/>
<polygon fill="black" stroke="black" points="706.2,-242.5 716.2,-239 706.2,-235.5 706.2,-242.5"/>
</g>
<!-- UserService  -->
<g id="node9" class="node">
<title>UserService </title>
<polygon fill="#fb8072" stroke="black" points="1081.9,-198 994.1,-198 994.1,-162 1081.9,-162 1081.9,-198"/>
<text text-anchor="middle" x="1038" y="-175.8" font-family="Times,serif" font-size="14.00">UserService </text>
</g>
<!-- UserModule&#45;&gt;UserService  -->
<g id="edge9" class="edge">
<title>UserModule&#45;&gt;UserService </title>
<path fill="none" stroke="black" stroke-dasharray="5,2" d="M801.98,-98C880.24,-98 1038,-98 1038,-98 1038,-98 1038,-151.8 1038,-151.8"/>
<polygon fill="black" stroke="black" points="1034.5,-151.8 1038,-161.8 1041.5,-151.8 1034.5,-151.8"/>
</g>
<!-- AppService -->
<g id="node4" class="node">
<title>AppService</title>
<ellipse fill="#fdb462" stroke="black" cx="633" cy="-180" rx="56.74" ry="18"/>
<text text-anchor="middle" x="633" y="-175.8" font-family="Times,serif" font-size="14.00">AppService</text>
</g>
<!-- AppService&#45;&gt;AppModule -->
<g id="edge3" class="edge">
<title>AppService&#45;&gt;AppModule</title>
<path fill="none" stroke="black" d="M633,-198.28C633,-219.32 633,-251 633,-251 633,-251 706.03,-251 706.03,-251"/>
<polygon fill="black" stroke="black" points="706.03,-254.5 716.03,-251 706.03,-247.5 706.03,-254.5"/>
</g>
<!-- AuthService -->
<g id="node6" class="node">
<title>AuthService</title>
<ellipse fill="#fdb462" stroke="black" cx="363" cy="-104" rx="59.11" ry="18"/>
<text text-anchor="middle" x="363" y="-99.8" font-family="Times,serif" font-size="14.00">AuthService</text>
</g>
<!-- AuthService&#45;&gt;AuthModule -->
<g id="edge6" class="edge">
<title>AuthService&#45;&gt;AuthModule</title>
<path fill="none" stroke="black" d="M363,-122.21C363,-127.55 363,-132 363,-132 363,-132 767.47,-132 767.47,-132 767.47,-132 767.47,-151.85 767.47,-151.85"/>
<polygon fill="black" stroke="black" points="763.97,-151.85 767.47,-161.85 770.97,-151.85 763.97,-151.85"/>
</g>
<!-- JwtStrategy -->
<g id="node7" class="node">
<title>JwtStrategy</title>
<ellipse fill="#fdb462" stroke="black" cx="229" cy="-104" rx="56.76" ry="18"/>
<text text-anchor="middle" x="229" y="-99.8" font-family="Times,serif" font-size="14.00">JwtStrategy</text>
</g>
<!-- JwtStrategy&#45;&gt;AuthModule -->
<g id="edge7" class="edge">
<title>JwtStrategy&#45;&gt;AuthModule</title>
<path fill="none" stroke="black" d="M229,-122.11C229,-131.9 229,-142 229,-142 229,-142 750.32,-142 750.32,-142 750.32,-142 750.32,-151.89 750.32,-151.89"/>
<polygon fill="black" stroke="black" points="746.82,-151.89 750.32,-161.89 753.82,-151.89 746.82,-151.89"/>
</g>
<!-- LocalStrategy -->
<g id="node8" class="node">
<title>LocalStrategy</title>
<ellipse fill="#fdb462" stroke="black" cx="89" cy="-104" rx="65.41" ry="18"/>
<text text-anchor="middle" x="89" y="-99.8" font-family="Times,serif" font-size="14.00">LocalStrategy</text>
</g>
<!-- LocalStrategy&#45;&gt;AuthModule -->
<g id="edge8" class="edge">
<title>LocalStrategy&#45;&gt;AuthModule</title>
<path fill="none" stroke="black" d="M89,-122.15C89,-135.74 89,-152 89,-152 89,-152 733.16,-152 733.16,-152 733.16,-152 733.16,-152.98 733.16,-152.98"/>
<polygon fill="black" stroke="black" points="729.66,-151.79 733.16,-161.79 736.66,-151.79 729.66,-151.79"/>
</g>
<!-- UserService -->
<g id="node10" class="node">
<title>UserService</title>
<ellipse fill="#fdb462" stroke="black" cx="912" cy="-180" rx="58.44" ry="18"/>
<text text-anchor="middle" x="912" y="-175.8" font-family="Times,serif" font-size="14.00">UserService</text>
</g>
<!-- UserService&#45;&gt;UserModule -->
<g id="edge10" class="edge">
<title>UserService&#45;&gt;UserModule</title>
<path fill="none" stroke="black" d="M912,-161.97C912,-141.23 912,-110 912,-110 912,-110 812.03,-110 812.03,-110"/>
<polygon fill="black" stroke="black" points="812.03,-106.5 802.03,-110 812.03,-113.5 812.03,-106.5"/>
</g>
</g>
</svg>
